<svg xmlns="http://www.w3.org/2000/svg" viewBox="0 0 1280 344.46"><defs><style>.cls-1{fill:#f69f57;}.cls-2{fill:#e1893f;}.cls-3{fill:#f58f35;}</style></defs><g id="Layer_2" data-name="Layer 2"><g id="Layer_1-2" data-name="Layer 1"><path class="cls-1" d="M1280,69.51S1227.67-1.62,1171.66,0s-98.83,60.92-224,34.58-69.18,69-280,28.72S334.93,97.22,259.13,92.27,0,41.73,0,61.92V344.46H1280Z"/><path class="cls-2" d="M819,63.86c-8.31,4.37-13.49,23.18-24.81,28.2s-.63,23.27,29.55,24.52S986.08,54.65,939.4,34.23C895.05,14.82,843.61,50.94,819,63.86Z"/><path class="cls-2" d="M1092.17,27.31s-20.75,45.27-59.1,64.75-101.16,55.36-52.81,36.47c48.94-19.12,110.65-45.27,153.4-31.44s10.06-39,12.58-44.63,35.2-11.72,34.57-20S1155.67,0,1155.67,0,1103.48,22.91,1092.17,27.31Z"/><path class="cls-2" d="M497.74,53s-1.2,44.58-71.57,63.62-130.11,3.53-144.72,17.26-62.4,15.06-77,19S251.56,95.77,278.49,92s131.75-30.73,153-30.73S497.74,53,497.74,53Z"/><path class="cls-3" d="M967.4,181.45c-183.2,26.68-562.82.43-650.91,3.23S12.18,165.23,0,175.66v168.8H1280V133.86S1141,156.16,967.4,181.45Z"/></g></g></svg>