<svg xmlns="http://www.w3.org/2000/svg" viewBox="0 0 1285.41 351.31"><defs><style>.cls-1{fill:#6d452f;}.cls-2{fill:#5b433c;}</style></defs><g id="Layer_2" data-name="Layer 2"><g id="Layer_1-2" data-name="Layer 1"><path class="cls-1" d="M1285.41,68.45S1235.79-1.62,1179.78,0,1081,61,955.76,34.61s-69.18,69-280,28.72S343.05,97.22,267.25,92.27,5.41,42.84,5.41,63V351.31h1280Z"/><path class="cls-2" d="M827.11,63.86c-8.32,4.37-13.5,23.18-24.82,28.2s-.63,23.27,29.55,24.52S994.21,54.65,947.52,34.23C903.17,14.82,851.73,50.94,827.11,63.86Z"/><path class="cls-2" d="M1100.29,27.31s-20.75,45.27-59.1,64.75S940,147.42,988.38,128.53c48.94-19.12,110.65-45.27,153.4-31.44s10.06-39,12.58-44.63,35.2-11.72,34.58-20S1163.79,0,1163.79,0,1111.61,22.91,1100.29,27.31Z"/><path class="cls-2" d="M505.87,53s-1.21,44.58-71.58,63.62-130.11,3.53-144.72,17.26-62.4,15.06-77,19,47.11-57.13,74-60.88,131.75-30.73,153-30.73S505.87,53,505.87,53Z"/><path class="cls-2" d="M975.52,181.45c-183.2,26.68-562.82.43-650.91,3.23s-307-19.45-319.2-9,0,175.65,0,175.65h1280V133.86S1149.15,156.16,975.52,181.45Z"/></g></g></svg>